<svg width="21" height="19" viewBox="0 0 21 19" fill="none" xmlns="http://www.w3.org/2000/svg">
<path d="M10.7296 1.42939L12.6857 5.97158C12.939 6.55989 13.4936 6.96278 14.1314 7.02193L19.0557 7.47865C19.2742 7.49891 19.3624 7.77061 19.1976 7.9154L15.4822 11.1794C15.001 11.6021 14.7892 12.254 14.93 12.8789L16.0173 17.7033C16.0656 17.9173 15.8344 18.0852 15.6458 17.9732L11.3935 15.4483C10.8427 15.1212 10.1573 15.1212 9.60652 15.4483L5.35419 17.9732C5.16556 18.0853 4.93443 17.9173 4.98267 17.7033L6.07001 12.8789C6.21084 12.254 5.99903 11.6021 5.51781 11.1794L1.80238 7.9154C1.63756 7.77061 1.72585 7.49891 1.94429 7.47865L6.86863 7.02193C7.50644 6.96278 8.06096 6.55989 8.31431 5.97158L10.2704 1.42939C10.3572 1.2279 10.6428 1.2279 10.7296 1.42939Z" stroke="#C4C4C4" stroke-width="1.5"/>
</svg>
