<svg width="21" height="19" viewBox="0 0 21 19" fill="none" xmlns="http://www.w3.org/2000/svg">
<path d="M9.58155 1.13274C9.92863 0.32678 11.0714 0.326779 11.4185 1.13274L13.3745 5.67494C13.5193 6.01111 13.8362 6.24133 14.2006 6.27514L19.125 6.73186C19.9987 6.8129 20.3519 7.89971 19.6926 8.47886L15.9772 11.7428C15.7022 11.9844 15.5812 12.3569 15.6616 12.714L16.749 17.5384C16.9419 18.3945 16.0174 19.0662 15.2629 18.6181L11.0106 16.0932C10.6958 15.9063 10.3042 15.9063 9.98944 16.0932L5.73711 18.6181C4.98258 19.0662 4.05808 18.3945 4.25102 17.5384L5.33836 12.714C5.41883 12.3569 5.2978 11.9844 5.02282 11.7428L1.30739 8.47886C0.648129 7.89971 1.00125 6.8129 1.87503 6.73186L6.79937 6.27514C7.16383 6.24133 7.4807 6.01111 7.62547 5.67494L9.58155 1.13274Z" fill="black"/>
</svg>
